<svg width="16" height="16" fill="none" xmlns="http://www.w3.org/2000/svg"><path d="M7.998 9.634 2.281 15.35c-.214.214-.486.321-.816.321-.33 0-.603-.107-.817-.32a1.106 1.106 0 0 1-.32-.818c0-.33.106-.602.32-.816L6.365 8 .648 2.284a1.106 1.106 0 0 1-.32-.817c0-.33.106-.603.32-.817.214-.214.486-.32.817-.32.33 0 .602.106.816.32l5.717 5.717L13.715.65c.213-.214.486-.32.816-.32.33 0 .603.106.817.32.214.214.32.486.32.817 0 .33-.106.603-.32.817L9.631 8l5.717 5.717c.214.214.32.486.32.816 0 .331-.106.603-.32.817-.214.214-.486.321-.817.321-.33 0-.603-.107-.816-.32L7.998 9.633Z" fill="#333"/></svg>