<svg width="500" height="49" viewBox="0 0 500 49" fill="none" xmlns="http://www.w3.org/2000/svg">
<path d="M30.1606 17.93C32.0846 17.93 33.7659 18.3027 35.2046 19.048C36.6606 19.776 37.7786 20.8333 38.5586 22.22C39.3559 23.5893 39.7546 25.1927 39.7546 27.03C39.7546 28.8673 39.3559 30.462 38.5586 31.814C37.7786 33.166 36.6606 34.206 35.2046 34.934C33.7659 35.6447 32.0846 36 30.1606 36H24.2586V17.93H30.1606ZM30.1606 33.582C32.2753 33.582 33.8959 33.01 35.0226 31.866C36.1493 30.722 36.7126 29.11 36.7126 27.03C36.7126 24.9327 36.1493 23.2947 35.0226 22.116C33.8959 20.9373 32.2753 20.348 30.1606 20.348H27.2226V33.582H30.1606ZM44.2002 19.776C43.6629 19.776 43.2122 19.594 42.8482 19.23C42.4842 18.866 42.3022 18.4153 42.3022 17.878C42.3022 17.3407 42.4842 16.89 42.8482 16.526C43.2122 16.162 43.6629 15.98 44.2002 15.98C44.7202 15.98 45.1622 16.162 45.5262 16.526C45.8902 16.89 46.0722 17.3407 46.0722 17.878C46.0722 18.4153 45.8902 18.866 45.5262 19.23C45.1622 19.594 44.7202 19.776 44.2002 19.776ZM45.6562 21.674V36H42.6922V21.674H45.6562ZM48.5597 28.772C48.5597 27.3333 48.8543 26.0593 49.4437 24.95C50.0503 23.8407 50.865 22.9827 51.8877 22.376C52.9277 21.752 54.0803 21.44 55.3457 21.44C56.2817 21.44 57.2003 21.648 58.1017 22.064C59.0203 22.4627 59.7483 23 60.2857 23.676V16.76H63.2757V36H60.2857V33.842C59.8003 34.5353 59.1243 35.1073 58.2577 35.558C57.4083 36.0087 56.429 36.234 55.3197 36.234C54.0717 36.234 52.9277 35.922 51.8877 35.298C50.865 34.6567 50.0503 33.7727 49.4437 32.646C48.8543 31.502 48.5597 30.2107 48.5597 28.772ZM60.2857 28.824C60.2857 27.836 60.0777 26.978 59.6617 26.25C59.263 25.522 58.7343 24.9673 58.0757 24.586C57.417 24.2047 56.7063 24.014 55.9437 24.014C55.181 24.014 54.4703 24.2047 53.8117 24.586C53.153 24.95 52.6157 25.496 52.1997 26.224C51.801 26.9347 51.6017 27.784 51.6017 28.772C51.6017 29.76 51.801 30.6267 52.1997 31.372C52.6157 32.1173 53.153 32.6893 53.8117 33.088C54.4877 33.4693 55.1983 33.66 55.9437 33.66C56.7063 33.66 57.417 33.4693 58.0757 33.088C58.7343 32.7067 59.263 32.152 59.6617 31.424C60.0777 30.6787 60.2857 29.812 60.2857 28.824ZM74.3968 21.44C75.5234 21.44 76.5288 21.674 77.4128 22.142C78.3141 22.61 79.0161 23.3033 79.5188 24.222C80.0214 25.1407 80.2728 26.25 80.2728 27.55V36H77.3348V27.992C77.3348 26.7093 77.0141 25.73 76.3728 25.054C75.7314 24.3607 74.8561 24.014 73.7468 24.014C72.6374 24.014 71.7534 24.3607 71.0948 25.054C70.4534 25.73 70.1328 26.7093 70.1328 27.992V36H67.1688V21.674H70.1328V23.312C70.6181 22.7227 71.2334 22.2633 71.9788 21.934C72.7414 21.6047 73.5474 21.44 74.3968 21.44ZM85.6655 15.278L85.3535 20.608H83.3255L82.9875 15.278H85.6655ZM91.9803 24.092V32.022C91.9803 32.5593 92.1016 32.9493 92.3443 33.192C92.6043 33.4173 93.0376 33.53 93.6443 33.53H95.4643V36H93.1243C91.7896 36 90.7669 35.688 90.0563 35.064C89.3456 34.44 88.9903 33.426 88.9903 32.022V24.092H87.3003V21.674H88.9903V18.112H91.9803V21.674H95.4643V24.092H91.9803ZM110.956 24.092H108.304V36H105.314V24.092H103.624V21.674H105.314V20.66C105.314 19.0133 105.747 17.8173 106.614 17.072C107.498 16.3093 108.876 15.928 110.748 15.928V18.398C109.847 18.398 109.214 18.5713 108.85 18.918C108.486 19.2473 108.304 19.828 108.304 20.66V21.674H110.956V24.092ZM115.091 19.776C114.553 19.776 114.103 19.594 113.739 19.23C113.375 18.866 113.193 18.4153 113.193 17.878C113.193 17.3407 113.375 16.89 113.739 16.526C114.103 16.162 114.553 15.98 115.091 15.98C115.611 15.98 116.053 16.162 116.417 16.526C116.781 16.89 116.963 17.3407 116.963 17.878C116.963 18.4153 116.781 18.866 116.417 19.23C116.053 19.594 115.611 19.776 115.091 19.776ZM116.547 21.674V36H113.583V21.674H116.547ZM127.666 21.44C128.793 21.44 129.798 21.674 130.682 22.142C131.584 22.61 132.286 23.3033 132.788 24.222C133.291 25.1407 133.542 26.25 133.542 27.55V36H130.604V27.992C130.604 26.7093 130.284 25.73 129.642 25.054C129.001 24.3607 128.126 24.014 127.016 24.014C125.907 24.014 125.023 24.3607 124.364 25.054C123.723 25.73 123.402 26.7093 123.402 27.992V36H120.438V21.674H123.402V23.312C123.888 22.7227 124.503 22.2633 125.248 21.934C126.011 21.6047 126.817 21.44 127.666 21.44ZM136.335 28.772C136.335 27.3333 136.63 26.0593 137.219 24.95C137.826 23.8407 138.64 22.9827 139.663 22.376C140.703 21.752 141.856 21.44 143.121 21.44C144.057 21.44 144.976 21.648 145.877 22.064C146.796 22.4627 147.524 23 148.061 23.676V16.76H151.051V36H148.061V33.842C147.576 34.5353 146.9 35.1073 146.033 35.558C145.184 36.0087 144.204 36.234 143.095 36.234C141.847 36.234 140.703 35.922 139.663 35.298C138.64 34.6567 137.826 33.7727 137.219 32.646C136.63 31.502 136.335 30.2107 136.335 28.772ZM148.061 28.824C148.061 27.836 147.853 26.978 147.437 26.25C147.038 25.522 146.51 24.9673 145.851 24.586C145.192 24.2047 144.482 24.014 143.719 24.014C142.956 24.014 142.246 24.2047 141.587 24.586C140.928 24.95 140.391 25.496 139.975 26.224C139.576 26.9347 139.377 27.784 139.377 28.772C139.377 29.76 139.576 30.6267 139.975 31.372C140.391 32.1173 140.928 32.6893 141.587 33.088C142.263 33.4693 142.974 33.66 143.719 33.66C144.482 33.66 145.192 33.4693 145.851 33.088C146.51 32.7067 147.038 32.152 147.437 31.424C147.853 30.6787 148.061 29.812 148.061 28.824ZM180.938 21.674L176.492 36H173.372L170.486 25.418L167.6 36H164.48L160.008 21.674H163.024L166.014 33.192L169.056 21.674H172.15L175.062 33.14L178.026 21.674H180.938ZM190.563 21.44C191.655 21.44 192.626 21.674 193.475 22.142C194.342 22.61 195.018 23.3033 195.503 24.222C196.006 25.1407 196.257 26.25 196.257 27.55V36H193.319V27.992C193.319 26.7093 192.998 25.73 192.357 25.054C191.716 24.3607 190.84 24.014 189.731 24.014C188.622 24.014 187.738 24.3607 187.079 25.054C186.438 25.73 186.117 26.7093 186.117 27.992V36H183.153V16.76H186.117V23.338C186.62 22.7313 187.252 22.2633 188.015 21.934C188.795 21.6047 189.644 21.44 190.563 21.44ZM199.05 28.772C199.05 27.3333 199.345 26.0593 199.934 24.95C200.541 23.8407 201.355 22.9827 202.378 22.376C203.418 21.752 204.562 21.44 205.81 21.44C206.937 21.44 207.916 21.6653 208.748 22.116C209.597 22.5493 210.273 23.0953 210.776 23.754V21.674H213.766V36H210.776V33.868C210.273 34.544 209.589 35.1073 208.722 35.558C207.855 36.0087 206.867 36.234 205.758 36.234C204.527 36.234 203.401 35.922 202.378 35.298C201.355 34.6567 200.541 33.7727 199.934 32.646C199.345 31.502 199.05 30.2107 199.05 28.772ZM210.776 28.824C210.776 27.836 210.568 26.978 210.152 26.25C209.753 25.522 209.225 24.9673 208.566 24.586C207.907 24.2047 207.197 24.014 206.434 24.014C205.671 24.014 204.961 24.2047 204.302 24.586C203.643 24.95 203.106 25.496 202.69 26.224C202.291 26.9347 202.092 27.784 202.092 28.772C202.092 29.76 202.291 30.6267 202.69 31.372C203.106 32.1173 203.643 32.6893 204.302 33.088C204.978 33.4693 205.689 33.66 206.434 33.66C207.197 33.66 207.907 33.4693 208.566 33.088C209.225 32.7067 209.753 32.152 210.152 31.424C210.568 30.6787 210.776 29.812 210.776 28.824ZM221.117 24.092V32.022C221.117 32.5593 221.238 32.9493 221.481 33.192C221.741 33.4173 222.174 33.53 222.781 33.53H224.601V36H222.261C220.926 36 219.904 35.688 219.193 35.064C218.482 34.44 218.127 33.426 218.127 32.022V24.092H216.437V21.674H218.127V18.112H221.117V21.674H224.601V24.092H221.117ZM246.983 21.674L238.195 42.734H235.127L238.039 35.766L232.397 21.674H235.699L239.729 32.594L243.915 21.674H246.983ZM255.434 36.234C254.082 36.234 252.86 35.9307 251.768 35.324C250.676 34.7 249.818 33.8333 249.194 32.724C248.57 31.5973 248.258 30.2973 248.258 28.824C248.258 27.368 248.578 26.0767 249.22 24.95C249.861 23.8233 250.736 22.9567 251.846 22.35C252.955 21.7433 254.194 21.44 255.564 21.44C256.933 21.44 258.172 21.7433 259.282 22.35C260.391 22.9567 261.266 23.8233 261.908 24.95C262.549 26.0767 262.87 27.368 262.87 28.824C262.87 30.28 262.54 31.5713 261.882 32.698C261.223 33.8247 260.322 34.7 259.178 35.324C258.051 35.9307 256.803 36.234 255.434 36.234ZM255.434 33.66C256.196 33.66 256.907 33.478 257.566 33.114C258.242 32.75 258.788 32.204 259.204 31.476C259.62 30.748 259.828 29.864 259.828 28.824C259.828 27.784 259.628 26.9087 259.23 26.198C258.831 25.47 258.302 24.924 257.644 24.56C256.985 24.196 256.274 24.014 255.512 24.014C254.749 24.014 254.038 24.196 253.38 24.56C252.738 24.924 252.227 25.47 251.846 26.198C251.464 26.9087 251.274 27.784 251.274 28.824C251.274 30.3667 251.664 31.5627 252.444 32.412C253.241 33.244 254.238 33.66 255.434 33.66ZM278.774 21.674V36H275.81V34.31C275.342 34.8993 274.726 35.3673 273.964 35.714C273.218 36.0433 272.421 36.208 271.572 36.208C270.445 36.208 269.431 35.974 268.53 35.506C267.646 35.038 266.944 34.3447 266.424 33.426C265.921 32.5073 265.67 31.398 265.67 30.098V21.674H268.608V29.656C268.608 30.9387 268.928 31.9267 269.57 32.62C270.211 33.296 271.086 33.634 272.196 33.634C273.305 33.634 274.18 33.296 274.822 32.62C275.48 31.9267 275.81 30.9387 275.81 29.656V21.674H278.774ZM284.296 15.278L283.984 20.608H281.956L281.618 15.278H284.296ZM290.117 23.754C290.55 23.026 291.122 22.4627 291.833 22.064C292.561 21.648 293.419 21.44 294.407 21.44V24.508H293.653C292.492 24.508 291.608 24.8027 291.001 25.392C290.412 25.9813 290.117 27.004 290.117 28.46V36H287.153V21.674H290.117V23.754ZM310.262 28.486C310.262 29.0233 310.227 29.5087 310.158 29.942H299.212C299.298 31.086 299.723 32.0047 300.486 32.698C301.248 33.3913 302.184 33.738 303.294 33.738C304.888 33.738 306.015 33.0707 306.674 31.736H309.872C309.438 33.0533 308.65 34.1367 307.506 34.986C306.379 35.818 304.975 36.234 303.294 36.234C301.924 36.234 300.694 35.9307 299.602 35.324C298.527 34.7 297.678 33.8333 297.054 32.724C296.447 31.5973 296.144 30.2973 296.144 28.824C296.144 27.3507 296.438 26.0593 297.028 24.95C297.634 23.8233 298.475 22.9567 299.55 22.35C300.642 21.7433 301.89 21.44 303.294 21.44C304.646 21.44 305.85 21.7347 306.908 22.324C307.965 22.9133 308.788 23.7453 309.378 24.82C309.967 25.8773 310.262 27.0993 310.262 28.486ZM307.168 27.55C307.15 26.458 306.76 25.5827 305.998 24.924C305.235 24.2653 304.29 23.936 303.164 23.936C302.141 23.936 301.266 24.2653 300.538 24.924C299.81 25.5653 299.376 26.4407 299.238 27.55H307.168ZM322.896 16.76V36H319.932V16.76H322.896ZM333.002 36.234C331.65 36.234 330.428 35.9307 329.336 35.324C328.244 34.7 327.386 33.8333 326.762 32.724C326.138 31.5973 325.826 30.2973 325.826 28.824C325.826 27.368 326.147 26.0767 326.788 24.95C327.429 23.8233 328.305 22.9567 329.414 22.35C330.523 21.7433 331.763 21.44 333.132 21.44C334.501 21.44 335.741 21.7433 336.85 22.35C337.959 22.9567 338.835 23.8233 339.476 24.95C340.117 26.0767 340.438 27.368 340.438 28.824C340.438 30.28 340.109 31.5713 339.45 32.698C338.791 33.8247 337.89 34.7 336.746 35.324C335.619 35.9307 334.371 36.234 333.002 36.234ZM333.002 33.66C333.765 33.66 334.475 33.478 335.134 33.114C335.81 32.75 336.356 32.204 336.772 31.476C337.188 30.748 337.396 29.864 337.396 28.824C337.396 27.784 337.197 26.9087 336.798 26.198C336.399 25.47 335.871 24.924 335.212 24.56C334.553 24.196 333.843 24.014 333.08 24.014C332.317 24.014 331.607 24.196 330.948 24.56C330.307 24.924 329.795 25.47 329.414 26.198C329.033 26.9087 328.842 27.784 328.842 28.824C328.842 30.3667 329.232 31.5627 330.012 32.412C330.809 33.244 331.806 33.66 333.002 33.66ZM349.582 36.234C348.23 36.234 347.008 35.9307 345.916 35.324C344.824 34.7 343.966 33.8333 343.342 32.724C342.718 31.5973 342.406 30.2973 342.406 28.824C342.406 27.368 342.727 26.0767 343.368 24.95C344.009 23.8233 344.885 22.9567 345.994 22.35C347.103 21.7433 348.343 21.44 349.712 21.44C351.081 21.44 352.321 21.7433 353.43 22.35C354.539 22.9567 355.415 23.8233 356.056 24.95C356.697 26.0767 357.018 27.368 357.018 28.824C357.018 30.28 356.689 31.5713 356.03 32.698C355.371 33.8247 354.47 34.7 353.326 35.324C352.199 35.9307 350.951 36.234 349.582 36.234ZM349.582 33.66C350.345 33.66 351.055 33.478 351.714 33.114C352.39 32.75 352.936 32.204 353.352 31.476C353.768 30.748 353.976 29.864 353.976 28.824C353.976 27.784 353.777 26.9087 353.378 26.198C352.979 25.47 352.451 24.924 351.792 24.56C351.133 24.196 350.423 24.014 349.66 24.014C348.897 24.014 348.187 24.196 347.528 24.56C346.887 24.924 346.375 25.47 345.994 26.198C345.613 26.9087 345.422 27.784 345.422 28.824C345.422 30.3667 345.812 31.5627 346.592 32.412C347.389 33.244 348.386 33.66 349.582 33.66ZM365.616 28.85L372.22 36H368.216L362.912 29.838V36H359.948V16.76H362.912V27.94L368.112 21.674H372.22L365.616 28.85ZM375.853 19.776C375.315 19.776 374.865 19.594 374.501 19.23C374.137 18.866 373.955 18.4153 373.955 17.878C373.955 17.3407 374.137 16.89 374.501 16.526C374.865 16.162 375.315 15.98 375.853 15.98C376.373 15.98 376.815 16.162 377.179 16.526C377.543 16.89 377.725 17.3407 377.725 17.878C377.725 18.4153 377.543 18.866 377.179 19.23C376.815 19.594 376.373 19.776 375.853 19.776ZM377.309 21.674V36H374.345V21.674H377.309ZM388.428 21.44C389.555 21.44 390.56 21.674 391.444 22.142C392.345 22.61 393.047 23.3033 393.55 24.222C394.053 25.1407 394.304 26.25 394.304 27.55V36H391.366V27.992C391.366 26.7093 391.045 25.73 390.404 25.054C389.763 24.3607 388.887 24.014 387.778 24.014C386.669 24.014 385.785 24.3607 385.126 25.054C384.485 25.73 384.164 26.7093 384.164 27.992V36H381.2V21.674H384.164V23.312C384.649 22.7227 385.265 22.2633 386.01 21.934C386.773 21.6047 387.579 21.44 388.428 21.44ZM403.857 21.44C404.966 21.44 405.945 21.6653 406.795 22.116C407.661 22.5493 408.337 23.0953 408.823 23.754V21.674H411.813V36.234C411.813 37.5513 411.535 38.7213 410.981 39.744C410.426 40.784 409.62 41.5987 408.563 42.188C407.523 42.7773 406.275 43.072 404.819 43.072C402.877 43.072 401.265 42.6127 399.983 41.694C398.7 40.7927 397.972 39.562 397.799 38.002H400.737C400.962 38.7473 401.439 39.3453 402.167 39.796C402.912 40.264 403.796 40.498 404.819 40.498C406.015 40.498 406.977 40.134 407.705 39.406C408.45 38.678 408.823 37.6207 408.823 36.234V33.842C408.32 34.518 407.635 35.09 406.769 35.558C405.919 36.0087 404.949 36.234 403.857 36.234C402.609 36.234 401.465 35.922 400.425 35.298C399.402 34.6567 398.587 33.7727 397.981 32.646C397.391 31.502 397.097 30.2107 397.097 28.772C397.097 27.3333 397.391 26.0593 397.981 24.95C398.587 23.8407 399.402 22.9827 400.425 22.376C401.465 21.752 402.609 21.44 403.857 21.44ZM408.823 28.824C408.823 27.836 408.615 26.978 408.199 26.25C407.8 25.522 407.271 24.9673 406.613 24.586C405.954 24.2047 405.243 24.014 404.481 24.014C403.718 24.014 403.007 24.2047 402.349 24.586C401.69 24.95 401.153 25.496 400.737 26.224C400.338 26.9347 400.139 27.784 400.139 28.772C400.139 29.76 400.338 30.6267 400.737 31.372C401.153 32.1173 401.69 32.6893 402.349 33.088C403.025 33.4693 403.735 33.66 404.481 33.66C405.243 33.66 405.954 33.4693 406.613 33.088C407.271 32.7067 407.8 32.152 408.199 31.424C408.615 30.6787 408.823 29.812 408.823 28.824ZM428.466 24.092H425.814V36H422.824V24.092H421.134V21.674H422.824V20.66C422.824 19.0133 423.257 17.8173 424.124 17.072C425.008 16.3093 426.386 15.928 428.258 15.928V18.398C427.356 18.398 426.724 18.5713 426.36 18.918C425.996 19.2473 425.814 19.828 425.814 20.66V21.674H428.466V24.092ZM437.307 36.234C435.955 36.234 434.733 35.9307 433.641 35.324C432.549 34.7 431.691 33.8333 431.067 32.724C430.443 31.5973 430.131 30.2973 430.131 28.824C430.131 27.368 430.451 26.0767 431.093 24.95C431.734 23.8233 432.609 22.9567 433.719 22.35C434.828 21.7433 436.067 21.44 437.437 21.44C438.806 21.44 440.045 21.7433 441.155 22.35C442.264 22.9567 443.139 23.8233 443.781 24.95C444.422 26.0767 444.743 27.368 444.743 28.824C444.743 30.28 444.413 31.5713 443.755 32.698C443.096 33.8247 442.195 34.7 441.051 35.324C439.924 35.9307 438.676 36.234 437.307 36.234ZM437.307 33.66C438.069 33.66 438.78 33.478 439.439 33.114C440.115 32.75 440.661 32.204 441.077 31.476C441.493 30.748 441.701 29.864 441.701 28.824C441.701 27.784 441.501 26.9087 441.103 26.198C440.704 25.47 440.175 24.924 439.517 24.56C438.858 24.196 438.147 24.014 437.385 24.014C436.622 24.014 435.911 24.196 435.253 24.56C434.611 24.924 434.1 25.47 433.719 26.198C433.337 26.9087 433.147 27.784 433.147 28.824C433.147 30.3667 433.537 31.5627 434.317 32.412C435.114 33.244 436.111 33.66 437.307 33.66ZM450.637 23.754C451.07 23.026 451.642 22.4627 452.353 22.064C453.081 21.648 453.939 21.44 454.927 21.44V24.508H454.173C453.011 24.508 452.127 24.8027 451.521 25.392C450.931 25.9813 450.637 27.004 450.637 28.46V36H447.673V21.674H450.637V23.754ZM462.513 17.67C464.281 17.67 465.694 18.1553 466.751 19.126C467.826 20.0967 468.363 21.4227 468.363 23.104C468.363 24.8547 467.809 26.172 466.699 27.056C465.59 27.94 464.117 28.382 462.279 28.382L462.175 30.436H459.601L459.471 26.354H460.329C462.011 26.354 463.293 26.1287 464.177 25.678C465.079 25.2273 465.529 24.3693 465.529 23.104C465.529 22.1853 465.261 21.466 464.723 20.946C464.203 20.426 463.475 20.166 462.539 20.166C461.603 20.166 460.867 20.4173 460.329 20.92C459.792 21.4227 459.523 22.1247 459.523 23.026H456.741C456.741 21.986 456.975 21.0587 457.443 20.244C457.911 19.4293 458.579 18.7967 459.445 18.346C460.329 17.8953 461.352 17.67 462.513 17.67ZM460.849 36.182C460.312 36.182 459.861 36 459.497 35.636C459.133 35.272 458.951 34.8213 458.951 34.284C458.951 33.7467 459.133 33.296 459.497 32.932C459.861 32.568 460.312 32.386 460.849 32.386C461.369 32.386 461.811 32.568 462.175 32.932C462.539 33.296 462.721 33.7467 462.721 34.284C462.721 34.8213 462.539 35.272 462.175 35.636C461.811 36 461.369 36.182 460.849 36.182Z" fill="#424242"/>
<g clip-path="url(#clip0_113_228)">
<path d="M473.95 8.46C474.81 7.19 475.69 5.93 476.61 4.69C477.05 4.09 477.5 3.5 477.95 2.91C478.45 2.27 479.08 1.63 479.38 0.87C479.63 0.23 478.57 0 478.19 0C477.36 0 476.52 0.26 475.86 0.79C475.2 1.32 474.7 2.1 474.18 2.77C473.71 3.38 473.25 3.99 472.79 4.61C471.88 5.85 470.99 7.1 470.14 8.38C469.61 9.16 470.6 9.58 471.25 9.58C472.16 9.58 473.4 9.27 473.95 8.46Z" fill="#0EC79B"/>
<path d="M484.04 14.23C487.44 10.94 490.98 7.77998 494.61 4.72998C494.82 4.54998 495.06 4.21998 494.98 3.91998C494.9 3.61998 494.52 3.45998 494.25 3.39998C493.35 3.19998 492.29 3.54998 491.59 4.10998C487.89 7.10998 484.33 10.28 480.9 13.59C480.69 13.79 480.42 14.11 480.51 14.44C480.6 14.77 480.99 14.93 481.27 14.98C482.16 15.14 483.37 14.88 484.04 14.24V14.23Z" fill="#0EC79B"/>
<path d="M486.76 21.92C488.48 21.45 490.21 21.03 491.95 20.67C492.15 20.63 492.35 20.59 492.55 20.55C493.01 20.46 492.4 20.58 492.83 20.49C493.3 20.4 493.77 20.31 494.24 20.23C495.12 20.07 496 19.92 496.88 19.78C497.58 19.66 498.86 19.33 499.03 18.49C499.2 17.65 497.88 17.62 497.39 17.68C493.62 18.16 489.88 18.97 486.22 19.97C485.65 20.12 484.31 20.66 484.53 21.47C484.75 22.28 486.21 22.07 486.75 21.92H486.76Z" fill="#0EC79B"/>
</g>
<g clip-path="url(#clip1_113_228)">
<path d="M17.0401 10.36C15.3301 7.64 13.6301 4.92 11.9501 2.18C11.4601 1.4 12.3601 1 13.0401 1C13.9201 1 15.1801 1.3 15.7001 2.1C17.4601 4.82 19.2001 7.54 20.9301 10.27C21.4401 11.08 20.4801 11.5 19.8001 11.5C18.9001 11.5 17.5601 11.19 17.0401 10.36Z" fill="#0EC79B"/>
<path d="M12.1701 14.37C9.45007 13.15 6.74007 11.92 4.03007 10.68C3.53007 10.45 2.36007 9.74998 2.97007 9.07998C3.58007 8.40998 4.96007 8.75998 5.61007 9.03998C8.35007 10.24 11.0801 11.45 13.8201 12.67C14.2101 12.84 14.6901 13.11 14.9301 13.48C15.0901 13.73 15.1701 14.1 14.9301 14.33C14.2701 14.96 12.9101 14.7 12.1901 14.37H12.1701Z" fill="#0EC79B"/>
<path d="M8.74006 22.42C6.59006 22.2 4.43006 21.98 2.28006 21.75C1.77006 21.69 1.20006 21.51 0.770059 21.24C0.510058 21.08 0.0600586 20.74 0.0100584 20.4C-0.109941 19.5 1.16006 19.49 1.74006 19.54C3.89006 19.73 6.04006 19.94 8.19006 20.16C8.71006 20.21 9.30006 20.41 9.74006 20.69C10.0001 20.85 10.4701 21.2 10.5201 21.56C10.6401 22.48 9.34006 22.5 8.75006 22.44L8.74006 22.42Z" fill="#0EC79B"/>
</g>
<defs>
<clipPath id="clip0_113_228">
<rect width="29.05" height="22.06" fill="white" transform="translate(470)"/>
</clipPath>
<clipPath id="clip1_113_228">
<rect width="21.08" height="21.44" fill="white" transform="matrix(-1 0 0 1 21.0801 1)"/>
</clipPath>
</defs>
</svg>
