<svg width="26" height="26" fill="none" xmlns="http://www.w3.org/2000/svg"><g clip-path="url(#a)"><path d="M24.075 0H1.92C.858 0 0 .838 0 1.874V24.12C0 25.157.858 26 1.92 26h22.155C25.137 26 26 25.157 26 24.126V1.874C26 .838 25.137 0 24.075 0ZM7.714 22.156h-3.86V9.745h3.86v12.41ZM5.784 8.054a2.235 2.235 0 1 1 0-4.469 2.234 2.234 0 0 1 0 4.469Zm16.372 14.102h-3.854v-6.033c0-1.437-.026-3.29-2.006-3.29-2.006 0-2.31 1.569-2.31 3.188v6.135h-3.85V9.745h3.697v1.696h.05c.514-.975 1.773-2.006 3.647-2.006 3.905 0 4.626 2.57 4.626 5.911v6.81Z" fill="#424242"/></g><defs><clipPath id="a"><path fill="#fff" d="M0 0h26v26H0z"/></clipPath></defs></svg>