<svg width="201" height="152" fill="none" xmlns="http://www.w3.org/2000/svg"><path d="M7.602 5.74 5.847 0 4.093 5.74 0 10.127l5.847-1.35 5.848 1.35-4.093-4.389ZM34.61 5.74 32.854 0l-1.754 5.74-4.093 4.388 5.847-1.35 5.848 1.35-4.094-4.389ZM59.863 0l1.754 5.74 4.093 4.388-5.847-1.35-5.847 1.35 4.093-4.389L59.863 0ZM88.625 5.74 86.871 0l-1.754 5.74-4.094 4.388 5.848-1.35 5.847 1.35-4.093-4.389ZM113.879 0l1.754 5.74 4.093 4.388-5.847-1.35-5.848 1.35 4.093-4.389L113.879 0ZM142.641 5.74 140.887 0l-1.755 5.74-4.093 4.388 5.848-1.35 5.847 1.35-4.093-4.389ZM167.894 0l1.755 5.74 4.093 4.388-5.848-1.35-5.847 1.35 4.093-4.389L167.894 0ZM196.656 5.74 194.902 0l-1.754 5.74-4.093 4.388 5.847-1.35 5.848 1.35-4.094-4.389ZM5.847 20.256l1.755 5.739 4.093 4.389-5.848-1.35L0 30.383l4.093-4.389 1.754-5.74ZM34.61 25.995l-1.755-5.74-1.754 5.74-4.093 4.389 5.847-1.35 5.848 1.35-4.094-4.389ZM59.863 20.256l1.754 5.739 4.093 4.389-5.847-1.35-5.847 1.35 4.093-4.389 1.754-5.74ZM88.625 25.995l-1.754-5.74-1.754 5.74-4.094 4.389 5.848-1.35 5.847 1.35-4.093-4.389ZM113.879 20.256l1.754 5.739 4.093 4.389-5.847-1.35-5.848 1.35 4.093-4.389 1.755-5.74ZM142.641 25.995l-1.754-5.74-1.755 5.74-4.093 4.389 5.848-1.35 5.847 1.35-4.093-4.389ZM167.894 20.256l1.755 5.739 4.093 4.389-5.848-1.35-5.847 1.35 4.093-4.389 1.754-5.74ZM196.656 25.995l-1.754-5.74-1.754 5.74-4.093 4.389 5.847-1.35 5.848 1.35-4.094-4.389ZM5.847 40.512l1.755 5.739 4.093 4.389-5.848-1.35L0 50.64l4.093-4.39 1.754-5.738ZM34.61 46.25l-1.755-5.738-1.754 5.739-4.093 4.389 5.847-1.35 5.848 1.35-4.094-4.39ZM59.863 40.512l1.754 5.739 4.093 4.389-5.847-1.35-5.847 1.35 4.093-4.39 1.754-5.738ZM88.625 46.25l-1.754-5.738-1.754 5.739-4.094 4.389 5.848-1.35 5.847 1.35-4.093-4.39ZM113.879 40.512l1.754 5.739 4.093 4.389-5.847-1.35-5.848 1.35 4.093-4.39 1.755-5.738ZM142.641 46.25l-1.754-5.738-1.755 5.739-4.093 4.389 5.848-1.35 5.847 1.35-4.093-4.39ZM167.894 40.512l1.755 5.739 4.093 4.389-5.848-1.35-5.847 1.35 4.093-4.39 1.754-5.738ZM196.656 46.25l-1.754-5.738-1.754 5.739-4.093 4.389 5.847-1.35 5.848 1.35-4.094-4.39ZM5.847 60.768l1.755 5.739 4.093 4.389-5.848-1.35L0 70.895l4.093-4.39 1.754-5.738ZM34.61 66.507l-1.755-5.74-1.754 5.74-4.093 4.389 5.847-1.35 5.848 1.35-4.094-4.39ZM59.863 60.768l1.754 5.739 4.093 4.389-5.847-1.35-5.847 1.35 4.093-4.39 1.754-5.738ZM88.625 66.507l-1.754-5.74-1.754 5.74-4.094 4.389 5.848-1.35 5.847 1.35-4.093-4.39ZM113.879 60.768l1.754 5.739 4.093 4.389-5.847-1.35-5.848 1.35 4.093-4.39 1.755-5.738ZM142.641 66.507l-1.754-5.74-1.755 5.74-4.093 4.389 5.848-1.35 5.847 1.35-4.093-4.39ZM167.894 60.768l1.755 5.739 4.093 4.389-5.848-1.35-5.847 1.35 4.093-4.39 1.754-5.738ZM196.656 66.507l-1.754-5.74-1.754 5.74-4.093 4.389 5.847-1.35 5.848 1.35-4.094-4.39ZM5.847 81.023l1.755 5.74 4.093 4.388-5.848-1.35L0 91.151l4.093-4.388 1.754-5.74ZM34.61 86.763l-1.755-5.74-1.754 5.74-4.093 4.388 5.847-1.35 5.848 1.35-4.094-4.388ZM59.863 81.023l1.754 5.74 4.093 4.388-5.847-1.35-5.847 1.35 4.093-4.388 1.754-5.74ZM88.625 86.763l-1.754-5.74-1.754 5.74-4.094 4.388 5.848-1.35 5.847 1.35-4.093-4.388ZM113.879 81.023l1.754 5.74 4.093 4.388-5.847-1.35-5.848 1.35 4.093-4.388 1.755-5.74ZM142.641 86.763l-1.754-5.74-1.755 5.74-4.093 4.388 5.848-1.35 5.847 1.35-4.093-4.388ZM167.894 81.023l1.755 5.74 4.093 4.388-5.848-1.35-5.847 1.35 4.093-4.388 1.754-5.74ZM196.656 86.763l-1.754-5.74-1.754 5.74-4.093 4.388 5.847-1.35 5.848 1.35-4.094-4.388ZM5.847 101.279l1.755 5.74 4.093 4.388-5.848-1.35L0 111.407l4.093-4.388 1.754-5.74ZM34.61 107.019l-1.755-5.74-1.754 5.74-4.093 4.388 5.847-1.35 5.848 1.35-4.094-4.388ZM59.863 101.279l1.754 5.74 4.093 4.388-5.847-1.35-5.847 1.35 4.093-4.388 1.754-5.74ZM88.625 107.019l-1.754-5.74-1.754 5.74-4.094 4.388 5.848-1.35 5.847 1.35-4.093-4.388ZM113.879 101.279l1.754 5.74 4.093 4.388-5.847-1.35-5.848 1.35 4.093-4.388 1.755-5.74ZM142.641 107.019l-1.754-5.74-1.755 5.74-4.093 4.388 5.848-1.35 5.847 1.35-4.093-4.388ZM167.894 101.279l1.755 5.74 4.093 4.388-5.848-1.35-5.847 1.35 4.093-4.388 1.754-5.74ZM196.656 107.019l-1.754-5.74-1.754 5.74-4.093 4.388 5.847-1.35 5.848 1.35-4.094-4.388ZM5.847 121.535l1.755 5.739 4.093 4.389-5.848-1.35L0 131.663l4.093-4.389 1.754-5.739ZM34.61 127.274l-1.755-5.739-1.754 5.739-4.093 4.389 5.847-1.35 5.848 1.35-4.094-4.389ZM59.863 121.535l1.754 5.739 4.093 4.389-5.847-1.35-5.847 1.35 4.093-4.389 1.754-5.739ZM88.625 127.274l-1.754-5.739-1.754 5.739-4.094 4.389 5.848-1.35 5.847 1.35-4.093-4.389ZM113.879 121.535l1.754 5.739 4.093 4.389-5.847-1.35-5.848 1.35 4.093-4.389 1.755-5.739ZM142.641 127.274l-1.754-5.739-1.755 5.739-4.093 4.389 5.848-1.35 5.847 1.35-4.093-4.389ZM167.894 121.535l1.755 5.739 4.093 4.389-5.848-1.35-5.847 1.35 4.093-4.389 1.754-5.739ZM196.656 127.274l-1.754-5.739-1.754 5.739-4.093 4.389 5.847-1.35 5.848 1.35-4.094-4.389ZM5.847 141.791l1.755 5.739 4.093 4.389-5.848-1.35L0 151.919l4.093-4.389 1.754-5.739ZM34.61 147.53l-1.755-5.739-1.754 5.739-4.093 4.389 5.847-1.35 5.848 1.35-4.094-4.389ZM59.863 141.791l1.754 5.739 4.093 4.389-5.847-1.35-5.847 1.35 4.093-4.389 1.754-5.739ZM88.625 147.53l-1.754-5.739-1.754 5.739-4.094 4.389 5.848-1.35 5.847 1.35-4.093-4.389ZM113.879 141.791l1.754 5.739 4.093 4.389-5.847-1.35-5.848 1.35 4.093-4.389 1.755-5.739ZM142.641 147.53l-1.754-5.739-1.755 5.739-4.093 4.389 5.848-1.35 5.847 1.35-4.093-4.389ZM167.894 141.791l1.755 5.739 4.093 4.389-5.848-1.35-5.847 1.35 4.093-4.389 1.754-5.739ZM196.656 147.53l-1.754-5.739-1.754 5.739-4.093 4.389 5.847-1.35 5.848 1.35-4.094-4.389Z" fill="#C7C7C7" fill-opacity=".13"/></svg>