<svg width="49" height="73" fill="none" xmlns="http://www.w3.org/2000/svg"><path fill-rule="evenodd" clip-rule="evenodd" d="M.456 20.884a1.896 1.896 0 0 0 2.673.206L22.78 4.248a1.896 1.896 0 0 1 2.467 0L44.895 21.09a1.896 1.896 0 1 0 2.467-2.879L27.713 1.369a5.687 5.687 0 0 0-7.402 0L.662 18.211a1.896 1.896 0 0 0-.206 2.673Zm0 25.276a1.896 1.896 0 0 0 2.673.205l19.65-16.842a1.896 1.896 0 0 1 2.467 0l19.649 16.842a1.896 1.896 0 1 0 2.467-2.878L27.713 26.645a5.687 5.687 0 0 0-7.402 0L.662 43.487a1.896 1.896 0 0 0-.206 2.673ZM3.13 71.64a1.896 1.896 0 0 1-2.467-2.878L20.311 51.92a5.687 5.687 0 0 1 7.402 0l19.649 16.842a1.896 1.896 0 1 1-2.467 2.878L25.245 54.8a1.896 1.896 0 0 0-2.467 0L3.13 71.641Z" fill="#424242" fill-opacity=".15"/></svg>