<svg width="49" height="73" fill="none" xmlns="http://www.w3.org/2000/svg"><path fill-rule="evenodd" clip-rule="evenodd" d="M47.567 51.214a1.896 1.896 0 0 0-2.673-.206L25.245 67.85a1.896 1.896 0 0 1-2.467 0L3.128 51.008a1.896 1.896 0 0 0-2.467 2.879l19.65 16.841a5.687 5.687 0 0 0 7.401 0l19.65-16.841a1.896 1.896 0 0 0 .205-2.673Zm0-25.276a1.896 1.896 0 0 0-2.673-.206L25.245 42.574a1.896 1.896 0 0 1-2.467 0L3.128 25.732a1.896 1.896 0 1 0-2.467 2.879l19.65 16.842a5.687 5.687 0 0 0 7.401 0l19.65-16.842a1.896 1.896 0 0 0 .205-2.673ZM44.894.456a1.896 1.896 0 0 1 2.467 2.88L27.713 20.176a5.687 5.687 0 0 1-7.403 0L.661 3.335A1.896 1.896 0 0 1 3.13.456l19.649 16.842c.71.609 1.757.609 2.467 0L44.894.456Z" fill="#424242" fill-opacity=".15"/></svg>