<svg width="57" height="18" fill="none" xmlns="http://www.w3.org/2000/svg"><path d="M3.648 13.084c-.56 0-1.064-.096-1.512-.288-.448-.2-.8-.48-1.056-.84a2.118 2.118 0 0 1-.384-1.26H2.16c.032.36.172.656.42.888.256.232.612.348 1.068.348.472 0 .84-.112 1.104-.336a1.13 1.13 0 0 0 .396-.888c0-.28-.084-.508-.252-.684a1.583 1.583 0 0 0-.612-.408c-.24-.096-.576-.2-1.008-.312a10.495 10.495 0 0 1-1.332-.432 2.254 2.254 0 0 1-.864-.696C.84 7.864.72 7.448.72 6.928c0-.48.12-.9.36-1.26a2.3 2.3 0 0 1 1.008-.828c.432-.192.932-.288 1.5-.288.808 0 1.468.204 1.98.612.52.4.808.952.864 1.656H4.92c-.024-.304-.168-.564-.432-.78-.264-.216-.612-.324-1.044-.324-.392 0-.712.1-.96.3-.248.2-.372.488-.372.864 0 .256.076.468.228.636.16.16.36.288.6.384.24.096.568.2.984.312.552.152 1 .304 1.344.456.352.152.648.388.888.708.248.312.372.732.372 1.26 0 .424-.116.824-.348 1.2-.224.376-.556.68-.996.912-.432.224-.944.336-1.536.336Zm10.554-3.552c0 .248-.016.472-.048.672H9.102c.04.528.236.952.588 1.272.352.32.784.48 1.296.48.736 0 1.256-.308 1.56-.924h1.476a2.998 2.998 0 0 1-1.092 1.5c-.52.384-1.168.576-1.944.576-.632 0-1.2-.14-1.704-.42a3.139 3.139 0 0 1-1.176-1.2c-.28-.52-.42-1.12-.42-1.8 0-.68.136-1.276.408-1.788.28-.52.668-.92 1.164-1.2.504-.28 1.08-.42 1.728-.42.624 0 1.18.136 1.668.408.488.272.868.656 1.14 1.152.272.488.408 1.052.408 1.692ZM12.774 9.1c-.008-.504-.188-.908-.54-1.212-.352-.304-.788-.456-1.308-.456-.472 0-.876.152-1.212.456-.336.296-.536.7-.6 1.212h3.66Zm8.834.432c0 .248-.016.472-.048.672h-5.052c.04.528.236.952.588 1.272.352.32.784.48 1.296.48.736 0 1.256-.308 1.56-.924h1.476a2.998 2.998 0 0 1-1.092 1.5c-.52.384-1.168.576-1.944.576-.632 0-1.2-.14-1.704-.42a3.139 3.139 0 0 1-1.176-1.2c-.28-.52-.42-1.12-.42-1.8 0-.68.136-1.276.408-1.788.28-.52.668-.92 1.164-1.2.504-.28 1.08-.42 1.728-.42.624 0 1.18.136 1.668.408.488.272.868.656 1.14 1.152.272.488.408 1.052.408 1.692ZM20.18 9.1c-.008-.504-.188-.908-.54-1.212-.352-.304-.788-.456-1.308-.456-.472 0-.876.152-1.212.456-.336.296-.536.7-.6 1.212h3.66Zm10.92 2.196h-3.492l-.6 1.704H25.58l2.988-8.352h1.584L33.14 13H31.7l-.6-1.704Zm-.384-1.116L29.36 6.304l-1.368 3.876h2.724Zm5.091-6.06V13H34.44V4.12h1.368Zm3.164 0V13h-1.368V4.12h1.368ZM54.367 8.647 49.7 3.98a.502.502 0 0 0-.7.72l3.807 3.8h-8.82a.5.5 0 1 0 0 1H52.8L49 13.3a.493.493 0 0 0 0 .707c.092.096.22.15.353.146.133.001.26-.052.354-.146l4.666-4.667a.5.5 0 0 0 0-.707l-.006.014Z" fill="#0EC79B"/></svg>