<svg width="298" height="365" fill="none" xmlns="http://www.w3.org/2000/svg"><g opacity=".57" stroke="#B7B7B7" stroke-opacity=".6" stroke-width=".4" stroke-miterlimit="10"><path d="M174.217 167.177c-16.262 7.914-27.423 38.973-22.674 55.743 5.247 18.519 48.323 19.445 53.628 15.49 5.306-3.954-33.624-21.373-26.666-37.408 7.725-17.798 38.304-15.218 38.17-23.11-.131-7.766-23.661-19.861-42.458-10.715Z"/><path d="M169.593 164.513c-18.814 6.501-30.1 44.287-23.743 63.084 7.207 21.29 54.421 17.65 61.619 14.992 6.204-2.288-30.769-24.403-24.366-43.951 6.952-21.238 34.844-22.407 33.233-27.609-1.733-5.578-24.669-14.122-46.743-6.516Z"/><path d="M164.97 161.862c-21.333 5.065-32.761 49.589-24.809 70.41 9.183 24.081 60.152 15.763 69.606 14.502 6.874-.934-27.88-27.407-22.068-50.504 6.203-24.634 32.033-29.812 28.295-32.06-2.614-3.642-25.597-8.391-51.024-2.348Z"/><path d="M160.347 159.189c-23.843 3.681-35.408 54.893-25.863 77.748 11.184 26.824 66.203 17.57 77.594 14.007 7.136-2.233-24.973-30.404-19.771-57.037 5.478-28.028 28.897-37.114 23.359-36.537-3.87-1.581-26.549-2.612-55.319 1.819Z"/><path d="M155.718 156.533c-26.345 2.314-38.045 60.191-26.945 85.089 13.187 29.589 71.334 15.895 85.584 13.508 7.997-1.344-22.053-33.393-17.47-63.579 4.748-31.424 26.163-43.107 18.42-41.016-4.96 1.334-27.465 3.175-59.589 5.998Z"/><path d="M151.097 153.855c-28.854.97-40.682 65.493-28.018 92.423 15.206 32.349 77.017 8.863 93.576 13.04 8.582 2.154-19.119-36.385-15.172-70.131 4.079-34.803 23.199-50.653 13.478-45.484-6.047 3.192-28.39 8.966-63.864 10.152Z"/><path d="M146.464 151.184c-31.359-.373-43.307 70.768-29.091 99.762 17.236 35.102 82.745 6.282 101.57 12.521 9.21 3.054-16.18-39.368-12.876-76.675 3.384-38.208 20.086-58.16 8.543-49.965-7.241 5.142-29.316 14.814-68.146 14.357Z"/><path d="M141.819 148.511c-33.865-1.701-45.921 76.08-30.159 107.107 19.251 37.854 88.527 3.629 109.56 12.027 9.864 3.936-13.23-42.37-10.574-83.225 2.701-41.59 16.92-65.61 3.602-54.441-8.473 7.099-30.254 20.652-72.429 18.532Z"/><path d="M137.191 145.843c-36.372-3.024-48.558 81.375-31.228 114.452 21.276 40.606 94.356.949 117.552 11.538 10.541 4.814-10.277-45.362-8.279-89.775 2.025-44.982 13.746-73.02-1.333-58.921-9.727 9.085-31.179 26.496-76.712 22.706Z"/><path d="M132.562 143.175c-38.904-4.329-51.179 86.66-32.295 121.785 23.291 43.352 100.227-1.777 125.542 11.039 11.24 5.69-7.322-48.354-5.981-96.319 1.352-48.374 10.578-80.41-6.274-63.401-10.984 11.095-32.111 32.359-80.992 26.896Z"/><path d="M127.929 140.501c-41.394-5.66-53.81 91.95-33.362 129.129 25.335 46.101 106.147-4.509 133.533 10.546 11.952 6.56-4.358-51.35-3.68-102.869.681-51.771 7.385-87.78-11.215-67.876-12.25 13.105-33.051 38.217-85.276 31.07Z"/><path d="M123.297 137.823c-43.907-6.974-56.412 97.242-34.431 136.472 27.37 48.844 112.049-7.259 141.525 10.036 12.669 7.443-1.4-54.325-1.383-109.417.014-55.162 4.206-95.14-16.151-72.351-13.513 15.135-33.994 44.09-89.56 35.26Z"/><path d="M118.667 135.155c-46.423-8.288-59.03 102.547-35.498 143.805 29.405 51.592 117.99-10.005 149.519 9.558 13.402 8.316 1.566-57.341.914-115.966-.652-58.625 1.021-102.496-21.091-76.842-14.78 17.161-34.935 49.963-93.844 39.445Z"/><path d="M114.036 132.485c-48.94-9.597-61.644 107.812-36.57 151.147 31.442 54.355 123.953-12.739 157.508 9.063 14.143 9.195 4.536-60.341 3.216-122.514-1.32-61.954-2.155-109.84-26.033-81.306-16.042 19.176-35.87 55.816-98.121 43.61Z"/><path d="M109.403 129.806C57.946 118.9 45.224 242.854 71.779 288.296c33.582 57.01 129.931-15.523 165.499 8.564 14.884 10.079 7.506-63.336 5.513-129.057-1.982-65.35-5.331-117.19-30.969-85.786-17.324 21.205-36.836 61.692-102.419 47.789Z"/><path d="M104.773 127.136c-53.975-12.215-66.8 118.332-38.706 165.816 35.606 59.776 135.91-18.306 173.49 8.07 15.635 10.958 10.476-66.336 7.811-135.615-2.639-68.75-8.508-124.529-35.905-90.266-18.579 23.256-37.77 67.586-106.69 51.995Z"/><path d="M100.14 124.468c-56.516-13.521-69.426 123.626-39.774 173.163 37.634 62.482 141.892-21.044 181.479 7.575 16.404 11.85 13.562-69.335 10.107-142.153-3.184-72.15-11.684-131.866-40.841-94.734-19.846 25.266-38.72 73.438-110.971 56.149Z"/><path d="M95.51 121.795C36.466 107.08 23.457 250.714 54.666 302.298c39.657 65.259 147.887-23.805 189.474 7.082 17.136 12.728 16.503-72.337 12.405-148.7-3.871-75.548-14.867-139.2-45.787-99.214-21.11 27.301-39.699 79.454-115.25 60.329Z"/><path d="M90.876 119.124c-61.558-16.049-74.669 134.202-41.91 187.839 41.677 68.005 153.888-26.572 197.465 6.587 17.891 13.613 19.454-75.348 14.701-155.247-4.552-78.945-18.038-146.538-50.723-103.687-22.394 29.355-40.643 85.296-119.533 64.508Z"/><path d="M86.246 116.453c-64.074-17.377-77.3 139.495-42.978 195.175 43.703 70.741 159.896-29.327 205.454 6.093 18.65 14.503 22.426-78.327 16.996-161.775-5.257-82.343-21.287-153.932-55.659-108.165-23.698 31.31-41.585 91.122-123.813 68.672Z"/><path d="M81.615 113.78C15.027 95.059 1.673 258.572 37.569 316.296c45.726 73.501 165.905-32.088 213.445 5.578 19.415 15.394 25.353-81.33 19.3-168.336-5.921-85.723-24.431-161.211-60.601-112.624-24.942 33.388-42.523 97.005-128.098 72.866Z"/><path d="M209.356 34.07c-26.177 35.44-43.474 102.82-132.375 77.045C7.87 91.075-5.572 261.186 31.862 320.966c47.756 76.253 171.92-34.848 221.438 5.099 40.043 32.311 32.609-395.645-43.944-291.996Z"/></g></svg>