<svg width="30" height="24" viewBox="0 0 30 24" fill="none" xmlns="http://www.w3.org/2000/svg">
<path d="M3 23.5385C2.175 23.5385 1.469 23.2563 0.882 22.6918C0.294 22.1265 0 21.4471 0 20.6539V3.34616C0 2.55289 0.294 1.87405 0.882 1.30962C1.469 0.74424 2.175 0.461548 3 0.461548H27C27.825 0.461548 28.5315 0.74424 29.1195 1.30962C29.7065 1.87405 30 2.55289 30 3.34616V20.6539C30 21.4471 29.7065 22.1265 29.1195 22.6918C28.5315 23.2563 27.825 23.5385 27 23.5385H3ZM15 13.1899C15.125 13.1899 15.256 13.1716 15.393 13.1351C15.531 13.0995 15.6625 13.0457 15.7875 12.9736L26.4 6.59136C26.6 6.47116 26.75 6.32116 26.85 6.14136C26.95 5.96059 27 5.76203 27 5.54568C27 5.06491 26.7875 4.70434 26.3625 4.46395C25.9375 4.22357 25.5 4.23559 25.05 4.50001L15 10.5577L4.95 4.50001C4.5 4.23559 4.0625 4.22934 3.6375 4.48126C3.2125 4.73414 3 5.08895 3 5.54568C3 5.78607 3.05 5.99616 3.15 6.17597C3.25 6.35674 3.4 6.4952 3.6 6.59136L14.2125 12.9736C14.3375 13.0457 14.469 13.0995 14.607 13.1351C14.744 13.1716 14.875 13.1899 15 13.1899Z" fill="white"/>
</svg>
