<svg width="36" height="36" viewBox="0 0 36 36" fill="none" xmlns="http://www.w3.org/2000/svg">
<path d="M14.4 23.3407L23.742 18L14.4 12.6593V23.3407ZM35.208 9.40153C35.442 10.2382 35.604 11.3598 35.712 12.7839C35.838 14.2081 35.892 15.4365 35.892 16.5046L36 18C36 21.8987 35.712 24.7648 35.208 26.5985C34.758 28.2006 33.714 29.2332 32.094 29.6782C31.248 29.9097 29.7 30.0699 27.324 30.1767C24.984 30.3013 22.842 30.3547 20.862 30.3547L18 30.4615C10.458 30.4615 5.76 30.1767 3.906 29.6782C2.286 29.2332 1.242 28.2006 0.792 26.5985C0.558 25.7617 0.396 24.6402 0.288 23.216C0.162 21.7919 0.108 20.5635 0.108 19.4954L0 18C0 14.1013 0.288 11.2352 0.792 9.40153C1.242 7.79933 2.286 6.7668 3.906 6.32175C4.752 6.09032 6.3 5.9301 8.676 5.82329C11.016 5.69867 13.158 5.64527 15.138 5.64527L18 5.53845C25.542 5.53845 30.24 5.82329 32.094 6.32175C33.714 6.7668 34.758 7.79933 35.208 9.40153Z" fill="white"/>
</svg>
